REM DIRINDEX 1\2\6,1\2\7,1\2\8,1\3\9,1\3\10,1\3\11,1\4\12,1\4\13,1\4\14,1\5\15,1\5\16,1\5\17,1\5\18
REM DIRNAME cjc019,folder01,folder02,folder03,folder04,folder05,folder06,folder07,folder08,folder09,folder10,folder11,folder12,folder13,folder14,folder15,folder16,folder17
TITLE ""
FILE "2Q_t_0862-0879.mp3" MP3
  TRACK 01 AUDIO
    TITLE "13:cjc019_3785"
    INDEX 01 00:00:00
  TRACK 02 AUDIO
    TITLE "0:"
    INDEX 01 00:01:03
  TRACK 03 AUDIO
    TITLE "14:cjc019_3786"
    INDEX 01 00:01:52
  TRACK 04 AUDIO
    TITLE "0:"
    INDEX 01 00:03:04
  TRACK 05 AUDIO
    TITLE "13:cjc019_3787"
    INDEX 01 00:03:55
  TRACK 06 AUDIO
    TITLE "0:"
    INDEX 01 00:05:01
  TRACK 07 AUDIO
    TITLE "14:cjc019_3788"
    INDEX 01 00:05:59
  TRACK 08 AUDIO
    TITLE "0:"
    INDEX 01 00:07:27
  TRACK 09 AUDIO
    TITLE "13:cjc019_3789"
    INDEX 01 00:08:07
  TRACK 10 AUDIO
    TITLE "0:"
    INDEX 01 00:09:16
  TRACK 11 AUDIO
    TITLE "14:cjc019_3790"
    INDEX 01 00:09:73
  TRACK 12 AUDIO
    TITLE "0:"
    INDEX 01 00:11:23
  TRACK 13 AUDIO
    TITLE "13:cjc019_3791"
    INDEX 01 00:12:01
  TRACK 14 AUDIO
    TITLE "0:"
    INDEX 01 00:13:10
  TRACK 15 AUDIO
    TITLE "14:cjc019_3792"
    INDEX 01 00:13:63
  TRACK 16 AUDIO
    TITLE "0:"
    INDEX 01 00:17:45
  TRACK 17 AUDIO
    TITLE "13:cjc019_3793"
    INDEX 01 00:18:21
  TRACK 18 AUDIO
    TITLE "0:"
    INDEX 01 00:19:44
  TRACK 19 AUDIO
    TITLE "14:cjc019_3794"
    INDEX 01 00:20:24
  TRACK 20 AUDIO
    TITLE "0:"
    INDEX 01 00:23:34
  TRACK 21 AUDIO
    TITLE "13:cjc019_3795"
    INDEX 01 00:24:08
  TRACK 22 AUDIO
    TITLE "0:"
    INDEX 01 00:25:27
  TRACK 23 AUDIO
    TITLE "14:cjc019_3796"
    INDEX 01 00:26:15
  TRACK 24 AUDIO
    TITLE "0:"
    INDEX 01 00:29:11
  TRACK 25 AUDIO
    TITLE "13:cjc019_3797"
    INDEX 01 00:29:66
  TRACK 26 AUDIO
    TITLE "0:"
    INDEX 01 00:31:16
  TRACK 27 AUDIO
    TITLE "14:cjc019_3798"
    INDEX 01 00:32:00
  TRACK 28 AUDIO
    TITLE "0:"
    INDEX 01 00:34:06
  TRACK 29 AUDIO
    TITLE "13:cjc019_3799"
    INDEX 01 00:34:57
  TRACK 30 AUDIO
    TITLE "0:"
    INDEX 01 00:36:01
  TRACK 31 AUDIO
    TITLE "14:cjc019_3800"
    INDEX 01 00:36:56
  TRACK 32 AUDIO
    TITLE "0:"
    INDEX 01 00:40:03
  TRACK 33 AUDIO
    TITLE "13:cjc019_3801"
    INDEX 01 00:40:56
  TRACK 34 AUDIO
    TITLE "0:"
    INDEX 01 00:41:67
  TRACK 35 AUDIO
    TITLE "14:cjc019_3802"
    INDEX 01 00:42:47
  TRACK 36 AUDIO
    TITLE "0:"
    INDEX 01 00:44:09
  TRACK 37 AUDIO
    TITLE "13:cjc019_3803"
    INDEX 01 00:44:65
  TRACK 38 AUDIO
    TITLE "0:"
    INDEX 01 00:46:07
  TRACK 39 AUDIO
    TITLE "14:cjc019_3804"
    INDEX 01 00:46:70
  TRACK 40 AUDIO
    TITLE "0:"
    INDEX 01 00:48:24
  TRACK 41 AUDIO
    TITLE "13:cjc019_3805"
    INDEX 01 00:49:00
  TRACK 42 AUDIO
    TITLE "0:"
    INDEX 01 00:50:25
  TRACK 43 AUDIO
    TITLE "14:cjc019_3806"
    INDEX 01 00:51:03
  TRACK 44 AUDIO
    TITLE "0:"
    INDEX 01 00:54:13
  TRACK 45 AUDIO
    TITLE "13:cjc019_3807"
    INDEX 01 00:54:62
  TRACK 46 AUDIO
    TITLE "0:"
    INDEX 01 00:56:12
  TRACK 47 AUDIO
    TITLE "14:cjc019_3808"
    INDEX 01 00:56:67
  TRACK 48 AUDIO
    TITLE "0:"
    INDEX 01 00:59:34
  TRACK 49 AUDIO
    TITLE "13:cjc019_3809"
    INDEX 01 01:00:12
  TRACK 50 AUDIO
    TITLE "0:"
    INDEX 01 01:01:23
  TRACK 51 AUDIO
    TITLE "14:cjc019_3810"
    INDEX 01 01:02:01
  TRACK 52 AUDIO
    TITLE "0:"
    INDEX 01 01:03:49
  TRACK 53 AUDIO
    TITLE "13:cjc019_3811"
    INDEX 01 01:04:29
  TRACK 54 AUDIO
    TITLE "0:"
    INDEX 01 01:05:50
  TRACK 55 AUDIO
    TITLE "14:cjc019_3812"
    INDEX 01 01:06:34
  TRACK 56 AUDIO
    TITLE "0:"
    INDEX 01 01:12:03
  TRACK 57 AUDIO
    TITLE "13:cjc019_3813"
    INDEX 01 01:12:60
  TRACK 58 AUDIO
    TITLE "0:"
    INDEX 01 01:14:17
  TRACK 59 AUDIO
    TITLE "14:cjc019_3814"
    INDEX 01 01:14:74
  TRACK 60 AUDIO
    TITLE "0:"
    INDEX 01 01:16:48
  TRACK 61 AUDIO
    TITLE "13:cjc019_3815"
    INDEX 01 01:17:28
  TRACK 62 AUDIO
    TITLE "0:"
    INDEX 01 01:18:37
  TRACK 63 AUDIO
    TITLE "14:cjc019_3816"
    INDEX 01 01:19:21
  TRACK 64 AUDIO
    TITLE "0:"
    INDEX 01 01:21:57
  TRACK 65 AUDIO
    TITLE "13:cjc019_3817"
    INDEX 01 01:22:35
  TRACK 66 AUDIO
    TITLE "0:"
    INDEX 01 01:23:52
  TRACK 67 AUDIO
    TITLE "14:cjc019_3818"
    INDEX 01 01:24:36
  TRACK 68 AUDIO
    TITLE "0:"
    INDEX 01 01:27:42
  TRACK 69 AUDIO
    TITLE "13:cjc019_3819"
    INDEX 01 01:28:27
  TRACK 70 AUDIO
    TITLE "0:"
    INDEX 01 01:29:68
  TRACK 71 AUDIO
    TITLE "14:cjc019_3820"
    INDEX 01 01:30:48
  TRACK 72 AUDIO
    TITLE "0:"
    INDEX 01 01:32:23
